<svg xmlns="http://www.w3.org/2000/svg" viewBox="-18.5 36.1 613.5 183.9" role="img" aria-label="Veloura">
  <path d="M84 60.50L84 60.50Q84 60 84.50 60L84.50 60L115.40 60Q115.90 60 115.90 60.50L115.90 60.50Q115.90 60.80 115.30 61L115.30 61L109.80 62.60Q107.20 63.50 105.35 65.90Q103.50 68.30 102 73L102 73L64.30 191.10Q63.80 192.90 63.80 195.50L63.80 195.50L63.80 199Q63.80 200 62.90 200L62.90 200L52.10 200Q51.30 200 51.30 199L51.30 199L51.30 195.50Q51.30 193.70 50.40 191.10L50.40 191.10L9.30 65.70Q8.30 62.80 6.80 62.40L6.80 62.40L0.30 61Q-0.50 60.80-0.50 60.50L-0.50 60.50Q-0.50 60 0.10 60L0.10 60L39.20 60Q39.70 60 39.70 60.50L39.70 60.50Q39.70 60.80 38.90 61L38.90 61L25.90 62.30Q22.60 62.90 23.70 66.40L23.70 66.40L63.50 189.10L100.50 73.10Q101.90 68.80 100.55 66.10Q99.20 63.40 93.10 62.20L93.10 62.20L84.70 61Q84 60.80 84 60.50ZM190.30 146.20L190.30 146.20Q190.30 147.70 188.60 147.70L188.60 147.70L130.80 147.70Q130.70 150 130.70 152.40L130.70 152.40Q130.70 172.90 139.65 184.05Q148.60 195.20 162.80 195.20L162.80 195.20Q172.30 195.20 179.60 189.25Q186.90 183.30 188.70 173.10L188.70 173.10Q188.80 172.40 189.10 172.40L189.10 172.40Q189.70 172.40 189.60 173.30L189.60 173.30Q187.90 185.70 178.75 193.85Q169.60 202 156.80 202L156.80 202Q140.10 202 130.05 190.55Q120 179.10 120 159.30L120 159.30Q120 145.90 124.85 135.15Q129.70 124.40 138.35 118.15Q147 111.90 158.60 111.90L158.60 111.90Q173 111.90 181.65 121.55Q190.30 131.20 190.30 146.20ZM157.20 113L157.20 113Q145.50 113 138.75 122.05Q132 131.10 130.90 146.60L130.90 146.60L177 146.60Q178.50 146.60 178.50 145L178.50 145Q178.50 129.60 172.65 121.30Q166.80 113 157.20 113ZM224.20 55L224.20 55L224.20 195.40Q224.20 197.50 226.60 197.90L226.60 197.90L233.70 198.90Q234.60 198.90 234.60 199.50L234.60 199.50Q234.60 200 233.90 200L233.90 200L202.40 200Q201.80 200 201.80 199.50L201.80 199.50Q201.80 199 203.20 198.70L203.20 198.70L210.20 197.90Q212.60 197.50 212.60 195.50L212.60 195.50L212.60 62Q212.60 61 211.60 61L211.60 61L202.50 61Q202 61 202 60.50L202 60.50Q202 60 202.60 59.80L202.60 59.80L222.10 54.40Q222.90 54.10 223.40 54.10L223.40 54.10Q224.20 54.10 224.20 55ZM286.60 112.10L286.60 112.10Q298.60 112.10 308.10 117.85Q317.60 123.60 323.05 133.85Q328.50 144.10 328.50 157.40L328.50 157.40Q328.50 170.60 322.95 180.65Q317.40 190.70 307.75 196.35Q298.10 202 285.80 202L285.80 202Q273.70 202 264.35 196.40Q255 190.80 249.70 180.75Q244.40 170.70 244.40 157.40L244.40 157.40Q244.40 144 249.65 133.80Q254.90 123.60 264.40 117.85Q273.90 112.10 286.60 112.10ZM290.80 200.60L290.80 200.60Q303.90 199.60 310.95 187.45Q318 175.30 316.20 154.40L316.20 154.40Q314.30 133.10 305.15 122.65Q296 112.20 282 113.30L282 113.30Q268.10 114.30 261.40 126.80Q254.70 139.30 256.60 159.70L256.60 159.70Q258.50 180.10 268 190.90Q277.50 201.70 290.80 200.60ZM349.30 175L349.30 175L349.30 120.70Q349.30 119.80 348.20 119.80L348.20 119.80L339.10 119.80Q338.50 119.80 338.50 119.30L338.50 119.30Q338.50 118.90 339.20 118.60L339.20 118.60L358.80 113.10Q359.60 112.90 360.10 112.90L360.10 112.90Q360.90 112.90 360.90 113.80L360.90 113.80L360.90 173.90Q360.90 185.50 366.40 190.80Q371.90 196.10 380.70 196.10L380.70 196.10Q386.10 196.10 391.70 193.75Q397.30 191.40 403.30 185.80L403.30 185.80L405.10 184.10L405.10 120.70Q405.10 119.80 404.10 119.80L404.10 119.80L395 119.80Q394.50 119.80 394.50 119.30L394.50 119.30Q394.50 118.90 395.20 118.60L395.20 118.60L414.60 113.10Q415.40 112.90 415.90 112.90L415.90 112.90Q416.70 112.90 416.70 113.80L416.70 113.80L416.70 195.40Q416.70 197.50 419.10 197.90L419.10 197.90L426.20 198.90Q427.10 198.90 427.10 199.50L427.10 199.50Q427.10 200 426.40 200L426.40 200L408 200Q405.10 200 405.10 196.40L405.10 196.40L405.10 185.30L403.90 186.40Q394.30 195.20 387.25 198.30Q380.20 201.40 373.50 201.40L373.50 201.40Q363.10 201.40 356.20 194.85Q349.30 188.30 349.30 175ZM458.30 114L458.30 114L458.30 142.60Q460.50 127.40 467.55 119.75Q474.60 112.10 482.40 112.10L482.40 112.10Q489.10 112.10 492.80 116Q496.50 119.90 496.50 126L496.50 126Q496.50 130.10 494.65 132.20Q492.80 134.30 490 134.30L490 134.30Q484.40 134.30 484.20 127.80L484.20 127.80L484.20 125.20Q484.20 117.70 477.20 117.70L477.20 117.70Q472.70 117.70 468.35 121.85Q464 126 461.15 134.20Q458.30 142.40 458.30 154.40L458.30 154.40L458.30 195.20Q458.30 197.30 460.70 197.70L460.70 197.70L470.70 198.90Q471.50 199 471.50 199.50L471.50 199.50Q471.50 200 470.80 200L470.80 200L436.80 200Q436 200 436 199.40L436 199.40Q436 198.90 437.10 198.80L437.10 198.80L444.30 197.90Q446.70 197.50 446.70 195.60L446.70 195.60L446.70 120.50Q446.70 119.50 445.80 119.50L445.80 119.50L436.60 119.50Q436.10 119.50 436.10 119L436.10 119Q436.10 118.60 436.80 118.30L436.80 118.30L456.20 113.20Q457.10 113 457.50 113L457.50 113Q458.30 113 458.30 114ZM503.90 181.10L503.90 181.10Q503.90 171.50 511.85 165.10Q519.80 158.70 535.20 158.70L535.20 158.70Q541.50 158.70 546.15 159.70Q550.80 160.70 554.60 162.10L554.60 162.10L554.60 134.80Q554.60 112.90 538 112.90L538 112.90Q528.80 112.90 524.65 117.10Q520.50 121.30 520.50 125.50L520.50 125.50L520.50 131.20Q520.50 134.40 518.55 136.20Q516.60 138 513.80 138L513.80 138Q511.50 138 509.95 136.35Q508.40 134.70 508.40 131.50L508.40 131.50Q508.40 124.20 516.35 118.05Q524.30 111.90 539.20 111.90L539.20 111.90Q552.90 111.90 559.55 118.30Q566.20 124.70 566.20 135.80L566.20 135.80L566.20 190.10Q566.20 194.80 567.60 196.70Q569 198.60 571.20 198.60L571.20 198.60Q575.70 198.60 576.20 194.50L576.20 194.50Q576.30 194 576.70 194L576.70 194Q577 194 577 194.50L577 194.50Q577 196.60 574.50 199.10Q572 201.60 566.50 201.60L566.50 201.60Q555.10 201.60 555.10 190.80L555.10 190.80Q550.30 196.10 543.20 198.90Q536.10 201.70 528.10 201.70L528.10 201.70Q517 201.70 510.45 195.95Q503.90 190.20 503.90 181.10ZM516 179.20L516 179.20Q516 187.80 521.05 192.95Q526.10 198.10 534.40 198.10L534.40 198.10Q539.90 198.10 545.25 196.05Q550.60 194 554.60 189.90L554.60 189.90L554.60 163Q550.80 161.60 546.60 160.65Q542.40 159.70 537.40 159.70L537.40 159.70Q526.80 159.70 521.40 165.10Q516 170.50 516 179.20Z" fill="#161313"></path>
  <circle cx="286.45" cy="157.05" r="5.2" fill="#929C92"></circle>
</svg>